<?xml version="1.0" encoding="UTF-8" standalone="no"?>
<!-- Created with Inkscape (http://www.inkscape.org/) -->

<svg
   xmlns:dc="http://purl.org/dc/elements/1.1/"
   xmlns:cc="http://creativecommons.org/ns#"
   xmlns:rdf="http://www.w3.org/1999/02/22-rdf-syntax-ns#"
   xmlns:svg="http://www.w3.org/2000/svg"
   xmlns="http://www.w3.org/2000/svg"
   xmlns:sodipodi="http://sodipodi.sourceforge.net/DTD/sodipodi-0.dtd"
   xmlns:inkscape="http://www.inkscape.org/namespaces/inkscape"
   id="svg4136"
   version="1.1"
   inkscape:version="0.91 r13725"
   width="1625.9156"
   height="1380.4957"
   viewBox="0 0 1625.9156 1380.4957"
   sodipodi:docname="logo.svg">
  <metadata
     id="metadata4142">
    <rdf:RDF>
      <cc:Work
         rdf:about="">
        <dc:format>image/svg+xml</dc:format>
        <dc:type
           rdf:resource="http://purl.org/dc/dcmitype/StillImage" />
        <dc:title />
      </cc:Work>
    </rdf:RDF>
  </metadata>
  <defs
     id="defs4140" />
  <sodipodi:namedview
     pagecolor="#dadada"
     bordercolor="#666666"
     borderopacity="1"
     objecttolerance="10"
     gridtolerance="10"
     guidetolerance="10"
     inkscape:pageopacity="0"
     inkscape:pageshadow="2"
     inkscape:window-width="1280"
     inkscape:window-height="756"
     id="namedview4138"
     showgrid="false"
     fit-margin-top="0"
     fit-margin-left="0"
     fit-margin-right="0"
     fit-margin-bottom="0"
     inkscape:zoom="0.40130512"
     inkscape:cx="812.95783"
     inkscape:cy="627.44759"
     inkscape:window-x="0"
     inkscape:window-y="0"
     inkscape:window-maximized="0"
     inkscape:current-layer="svg4136" />
  <path
     id="path4180"
     style="fill:#ffffff;fill-opacity:1;fill-rule:evenodd;stroke:#ffffff;stroke-width:10;stroke-linecap:butt;stroke-linejoin:miter;stroke-miterlimit:4;stroke-dasharray:none;stroke-opacity:1"
     d="M 537.97646,254.7252 830.2906,115.8757 C 819.38284,110.59761 753.56515,90.511827 673.01657,83.750606 571.5915,75.237013 460.73835,79.369212 348.88388,96.13274 c -74.66423,11.18985 -65.50024,6.52064 -107.49699,15.6347 0,0 -59.21749,17.73481 -49.42493,16.29622 25.81289,-3.79208 33.98621,-3.01684 81.79349,4.60035 55.26338,8.80518 105.05141,15.20296 153.49834,32.01285 46.147,16.01188 87.32607,34.12087 110.72267,90.04834 z M 522.37275,282.25855 880.26064,112.07411 C 866.90598,105.60489 786.32365,80.986237 687.70591,72.69917 563.52852,62.264268 406.35914,70.396516 269.41277,90.943157 177.99939,104.65829 114.35951,113.71045 67.326235,128.51132 c -22.348186,7.03274 -72.5551079,27.54757 -60.5122564,26.1089 8.1162424,-0.96959 52.4833794,-8.59355 112.3984814,-6.63152 133.70389,4.37839 344.4425,-6.24443 403.16029,134.26985 z"
     inkscape:connector-curvature="0" />
  <path
     id="path4184"
     style="fill:#ffffff;fill-opacity:1;fill-rule:evenodd;stroke:#ffffff;stroke-width:10;stroke-linecap:butt;stroke-linejoin:miter;stroke-miterlimit:4;stroke-dasharray:none;stroke-opacity:1"
     d="M 645.51696,875.10036 917.9345,707.82688 c 13.53082,3.43645 -56.21023,106.05133 -97.41513,151.50948 -30.6945,33.86287 -115.11359,117.14117 -129.31805,132.25316 -59.11123,47.61268 -62.26576,56.52048 -134.81492,110.82838 -48.56747,36.646 -55.15403,40.2391 -85.31933,61.1863 51.41704,-49.9778 53.72817,-53.1564 93.44985,-93.2699 34.75577,-41.9758 68.68503,-87.4047 74.02634,-108.63929 6.34163,-18.81691 7.42459,-27.44212 10.17396,-48.10715 0.0199,-8.39709 1.1644,-9.14946 1.07457,-22.87376 z M 564.9203,872.0727 1018.6674,597.81412 c 22.5374,5.63435 -93.62549,173.87985 -162.25762,248.41222 -51.12572,55.52095 -190.29594,201.99066 -212.5145,218.25816 -98.45751,78.0649 -196.4957,156.2696 -317.33584,226.8736 -89.54058,52.9928 -106.27475,58.8839 -155.07815,84.7186 80.43366,-62.0861 152.77983,-118.1327 241.23268,-192.4118 65.09453,-60.3131 111.52225,-105.0128 178.05269,-183.79632 23.89656,-30.51614 28.56131,-59.62665 23.28101,-90.22207 -14.4823,-21.32824 -3.37738,-9.80291 -26.44754,-28.36896 z"
     inkscape:connector-curvature="0"
     sodipodi:nodetypes="ccsccccccccccscccccccc" />
  <path
     id="path4188"
     style="fill:#ffffff;fill-opacity:1;fill-rule:evenodd;stroke:#ffffff;stroke-width:10;stroke-linecap:butt;stroke-linejoin:miter;stroke-miterlimit:4;stroke-dasharray:none;stroke-opacity:1"
     d="m 895.59091,173.40462 c 85.18369,-44.23374 163.35809,-69.77613 240.80279,-93.372521 72.2851,-23.646551 142.6201,-37.542384 212.2996,-48.160561 80.1627,-8.858667 168.3944,-18.554202 237.8542,-19.718576 10.209,-0.570404 20.3687,-0.0229 29.4861,1.044073 -21.0659,38.788423 -40.4527,53.332478 -58.9722,71.749406 -115.551,115.546859 -122.779,118.257319 -181.8306,174.950619 -63.3426,51.32866 -127.6246,108.04136 -206.4024,167.08765 -145.5099,99.22438 -287.38717,202.0814 -445.23949,288.96337 -17.46022,11.03289 -34.05114,19.14556 -61.75515,32.7394 -7.51927,3.92921 -13.91325,6.99439 -62.08629,32.12992 -14.26047,6.30203 -27.67111,11.97216 -51.10917,12.7773 55.94303,-37.76281 93.81409,-66.52168 140.55021,-101.23547 L 898.53952,527.23731 1168.8284,307.07475 1325.1045,159.64446 c 7.3519,-11.86777 17.8392,-22.4814 12.7773,-39.31475 -9.7854,-7.10892 -21.3513,-11.54687 -36.3662,-10.81155 -14.5264,-2.89311 -35.9525,-2.33635 -60.9378,0 -24.0754,2.64747 -40.0391,6.56397 -86.4925,12.77729 -50.0943,10.48393 -103.7864,20.96786 -156.27608,31.45179 -22.68104,1.99577 -67.79282,12.96384 -102.21831,19.65738 z M 189.51199,1016.0452 C 658.78302,818.82407 1049.9668,577.07086 1432.6243,227.57452 c 61.8439,-60.38193 197.296,-190.463089 187.7503,-220.0151066 -1.7037,-5.2745594 -50.4235,-1.580056 -146.7936,3.7623596 -179.8472,5.983656 -336.0524,42.607259 -488.67451,92.901307 -193.9096,63.89965 -379.01666,152.88497 -566.47333,262.1395 -72.31393,35.82303 -344.289828,182.2625 -96.53875,60.3304 272.87475,-124.33812 555.21222,-236.22855 848.96689,-296.8943 65.6576,-8.44622 109.3051,-12.52236 121.3303,3.1854 13.8345,18.07114 -31.1435,57.31789 -77.1942,106.2448 -41.0512,43.61514 -87.9895,85.91416 -119.0824,111.26847 C 891.37082,526.24893 684.27797,672.3529 448.81624,824.16748 383.40611,858.3232 352.80141,881.32455 312.5635,887.416 c -20.1837,3.05553 -2.92761,-23.25762 5.80993,-84.17152 10.09359,-99.39843 30.36665,-297.44537 -13.67313,-83.06978 -26.08109,97.02113 -78.23318,196.34989 -115.18831,295.8705 z"
     inkscape:connector-curvature="0"
     sodipodi:nodetypes="ccccccccccccccccccccccccscscccssccsccc" />
</svg>
